# xmcd
#
# Track frame offsets: 
#        150
#        11141
#        24617
#        38475
#        49459
#        61492
#        75273
#        87712
#        98393
#        109209
#        119013
#        130310
#        142352
#        151900
#        163890
#        176133
#        187796
#        202323
#        215246
#        228586
#        239100
#        251578
#        264209
#
# Disc length: 3703 seconds
#
# Revision: 1
# Processed by: cddbd v1.5.2PL0 Copyright (c) Steve Scherf et al.
# Submitted via: ExactAudioCopy v0.95b4
#
DISCID=590e7517
DTITLE=Various Artist - Szalone lata 60
DYEAR=1900
DGENRE=
TTITLE0=Let's Twist Again
TTITLE1=La bamba
TTITLE2=If I Had A Hammer
TTITLE3=Puppet On A String
TTITLE4=To Whom It Concern
TTITLE5=Yellow Submarine
TTITLE6=Alley Oop
TTITLE7=Cradle Of Love
TTITLE8=Da Doo Ron Ron
TTITLE9=Dynamite
TTITLE10=Hello Josephine
TTITLE11=The Twist
TTITLE12=Peppermint Twist
TTITLE13=Running Bear
TTITLE14=Long Live Love
TTITLE15=Yesterday Man
TTITLE16=From The Underworld
TTITLE17=With A Little Help From My Friends
TTITLE18=Happy Toghether
TTITLE19=It'S My Party
TTITLE20=Love's Made a Fool Of You
TTITLE21=There's Always Something There To Remind Me
TTITLE22=Stand By Me
EXTD=
EXTT0=
EXTT1=
EXTT2=
EXTT3=
EXTT4=
EXTT5=
EXTT6=
EXTT7=
EXTT8=
EXTT9=
EXTT10=
EXTT11=
EXTT12=
EXTT13=
EXTT14=
EXTT15=
EXTT16=
EXTT17=
EXTT18=
EXTT19=
EXTT20=
EXTT21=
EXTT22=
PLAYORDER=
